<svg width="184" height="76" viewBox="0 0 184 76" fill="none" xmlns="http://www.w3.org/2000/svg">
<path d="M118.696 56.6761C119.433 56.6767 120.142 56.3958 120.679 55.8909C121.216 55.386 121.539 54.6952 121.584 53.9597C121.6 53.6249 121.55 53.2901 121.435 52.9751C121.321 52.66 121.144 52.3709 120.917 52.1248C120.689 51.8787 120.415 51.6805 120.109 51.5417C119.804 51.4029 119.475 51.3264 119.139 51.3167C117.63 51.2831 116.197 52.6336 116.169 54.1217C116.162 54.4568 116.222 54.7901 116.346 55.1015C116.47 55.413 116.656 55.6963 116.891 55.9346C117.127 56.1729 117.408 56.3614 117.718 56.4888C118.029 56.6162 118.361 56.6799 118.696 56.6761Z" fill="white"/>
<path d="M26.883 34.6945C24.2512 33.5069 21.0938 32.9131 17.4108 32.9131H0.333313V74.435H8.04248V62.4572H17.4108C21.0897 62.4572 24.2471 61.8645 26.883 60.6789C29.3675 59.6127 31.4825 57.8378 32.9636 55.5761C34.3895 53.3639 35.1025 50.7351 35.1025 47.6897C35.1025 44.6444 34.3895 42.0156 32.9636 39.8033C31.4848 37.5381 29.3693 35.7607 26.883 34.6945ZM24.7442 53.7581C23.0229 55.2044 20.4623 55.9265 17.0625 55.9244H8.04859V39.4244H17.0625C20.4603 39.4244 23.0208 40.1374 24.7442 41.5633C26.4675 42.9893 27.3271 45.0263 27.323 47.6744C27.3271 50.2941 26.4695 52.325 24.7503 53.7672L24.7442 53.7581Z" fill="white"/>
<path d="M50.5147 32.9222H42.8055V74.435H50.5147V32.9222Z" fill="white"/>
<path d="M56.3875 39.4458H70.1467V74.4381H77.8558V39.4458H91.615V32.9222H56.3875V39.4458Z" fill="white"/>
<path d="M157.199 27.4406C157.876 25.907 158.244 24.2551 158.282 22.5793C158.32 20.9035 158.028 19.2367 157.422 17.6739C156.816 16.111 155.908 14.6829 154.75 13.471C153.592 12.2591 152.206 11.2871 150.673 10.6106C149.139 9.93404 147.487 9.56621 145.811 9.52807C144.136 9.48993 142.469 9.78224 140.906 10.3883C139.343 10.9944 137.915 11.9023 136.703 13.0603C135.491 14.2183 134.519 15.6036 133.843 17.1372V17.1617L127.322 14.8578C127.617 12.0886 126.869 9.3088 125.224 7.06182C123.579 4.81483 121.155 3.26214 118.426 2.70718C115.696 2.15221 112.859 2.63488 110.466 4.06085C108.074 5.48682 106.3 7.75359 105.49 10.4181C104.68 13.0827 104.893 15.9535 106.087 18.4695C107.281 20.9855 109.37 22.9658 111.946 24.0234C114.523 25.081 117.401 25.1399 120.018 24.1885C122.636 23.2372 124.804 21.3439 126.1 18.8789L132.801 21.25C132.648 23.1291 132.912 25.0187 133.575 26.7836C134.238 28.5485 135.283 30.1449 136.636 31.4586L130.98 38.0556C127.095 34.388 121.983 32.2991 116.641 32.1964C111.299 32.0938 106.11 33.9847 102.087 37.5003C98.0642 41.0159 95.4949 45.9042 94.8806 51.2115C94.2664 56.5189 95.6512 61.8648 98.765 66.2064L121.116 44.237C122.213 45.3614 123.188 46.3178 124.102 47.3292C124.311 47.6263 124.418 47.9834 124.407 48.3467C124.429 49.9264 124.407 51.5092 124.407 53.0889C124.337 57.2139 119.958 60.462 116.24 59.1053C115.445 58.815 114.749 58.2528 113.814 57.7028C109.786 61.6261 105.722 65.5403 101.509 69.3139C105.312 72.8667 110.274 74.9188 115.476 75.0892C120.677 75.2597 125.764 73.5368 129.791 70.2406C133.818 66.9443 136.512 62.2987 137.373 57.1662C138.234 52.0338 137.203 46.7633 134.472 42.3334L141.311 34.3492C144.342 35.4077 147.662 35.2845 150.607 34.004C153.552 32.7235 155.906 30.3798 157.199 27.4406Z" fill="white"/>
<path d="M126.1 30.3067C127.426 30.3067 128.502 29.2314 128.502 27.905C128.502 26.5786 127.426 25.5034 126.1 25.5034C124.774 25.5034 123.698 26.5786 123.698 27.905C123.698 29.2314 124.774 30.3067 126.1 30.3067Z" fill="white"/>
<path d="M132.755 7.01724C134.603 7.01724 136.101 5.51925 136.101 3.6714C136.101 1.82355 134.603 0.325562 132.755 0.325562C130.907 0.325562 129.409 1.82355 129.409 3.6714C129.409 5.51925 130.907 7.01724 132.755 7.01724Z" fill="white"/>
<path d="M176.006 32.9222V61.0334L154.804 35C152.452 36.7179 149.671 37.7512 146.768 37.9853V74.4381H154.407V46.327L177.299 74.4381H183.667V32.9222H176.006Z" fill="white"/>
</svg>
