<svg width="635" height="257" viewBox="0 0 635 257" fill="none" xmlns="http://www.w3.org/2000/svg">
<path d="M400.438 157.067C402.719 157.068 404.915 156.285 406.577 154.878C408.238 153.471 409.24 151.545 409.378 149.495C409.428 148.562 409.272 147.629 408.917 146.751C408.563 145.872 408.017 145.067 407.312 144.381C406.607 143.695 405.758 143.142 404.813 142.755C403.868 142.369 402.847 142.155 401.81 142.128C397.137 142.034 392.7 145.799 392.615 149.947C392.592 150.881 392.778 151.81 393.162 152.678C393.546 153.546 394.12 154.335 394.85 155C395.58 155.664 396.451 156.189 397.411 156.544C398.371 156.9 399.4 157.077 400.438 157.067Z" fill="#53389E"/>
<path d="M116.195 95.7968C108.047 92.4866 98.272 90.8315 86.87 90.8315H34V206.566H57.8667V173.18H86.87C98.2594 173.18 108.034 171.528 116.195 168.224C123.886 165.252 130.434 160.305 135.02 154.001C139.434 147.834 141.641 140.507 141.641 132.019C141.641 123.53 139.434 116.203 135.02 110.037C130.441 103.723 123.892 98.7688 116.195 95.7968ZM109.573 148.933C104.244 152.964 96.317 154.977 85.7915 154.971H57.8856V108.981H85.7915C96.3107 108.981 104.238 110.968 109.573 114.943C114.908 118.917 117.57 124.595 117.557 131.976C117.57 139.278 114.915 144.939 109.592 148.959L109.573 148.933Z" fill="#53389E"/>
<path d="M189.356 90.8571H165.489V206.566H189.356V90.8571Z" fill="#53389E"/>
<path d="M207.537 109.04H250.134V206.575H274.001V109.04H316.597V90.8571H207.537V109.04Z" fill="#53389E"/>
<path d="M519.639 75.578C521.734 71.3033 522.872 66.699 522.991 62.0281C523.109 57.3572 522.204 52.7111 520.327 48.3551C518.451 43.9991 515.64 40.0184 512.055 36.6404C508.47 33.2624 504.181 30.5532 499.433 28.6675C494.685 26.7818 489.572 25.7566 484.384 25.6502C479.196 25.5439 474.035 26.3587 469.197 28.048C464.359 29.7372 459.937 32.268 456.185 35.4956C452.433 38.7233 449.424 42.5847 447.33 46.8594V46.9275L427.143 40.5058C428.056 32.7871 425.74 25.0391 420.647 18.776C415.553 12.513 408.049 8.18514 399.6 6.63829C391.151 5.09144 382.365 6.43678 374.959 10.4114C367.553 14.386 362.06 20.7042 359.553 28.1312C357.045 35.5581 357.704 43.5599 361.401 50.5727C365.097 57.5856 371.565 63.1053 379.541 66.0532C387.517 69.001 396.427 69.1652 404.53 66.5135C412.633 63.8617 419.347 58.5848 423.359 51.7139L444.104 58.323C443.631 63.5605 444.45 68.8275 446.502 73.7467C448.554 78.666 451.79 83.1158 455.976 86.7775L438.466 105.165C426.438 94.9425 410.612 89.1202 394.074 88.8341C377.537 88.5479 361.474 93.8184 349.019 103.618C336.563 113.417 328.609 127.042 326.708 141.835C324.806 156.628 329.093 171.529 338.733 183.63L407.93 122.395C411.326 125.529 414.344 128.195 417.172 131.014C417.821 131.842 418.153 132.837 418.118 133.85C418.185 138.253 418.118 142.665 418.118 147.068C417.901 158.566 404.345 167.619 392.833 163.837C390.373 163.028 388.216 161.461 385.322 159.928C372.854 170.864 360.273 181.774 347.228 192.292C359.001 202.195 374.365 207.915 390.468 208.39C406.571 208.865 422.318 204.062 434.785 194.875C447.253 185.687 455.594 172.738 458.259 158.433C460.925 144.127 457.734 129.436 449.278 117.089L470.449 94.8344C479.835 97.7849 490.112 97.4413 499.229 93.8722C508.347 90.303 515.634 83.7706 519.639 75.578Z" fill="#53389E"/>
<path d="M423.359 83.5667C427.465 83.5667 430.794 80.5696 430.794 76.8725C430.794 73.1754 427.465 70.1783 423.359 70.1783C419.253 70.1783 415.924 73.1754 415.924 76.8725C415.924 80.5696 419.253 83.5667 423.359 83.5667Z" fill="#53389E"/>
<path d="M443.962 18.6518C449.683 18.6518 454.32 14.4764 454.32 9.32589C454.32 4.17535 449.683 0 443.962 0C438.241 0 433.604 4.17535 433.604 9.32589C433.604 14.4764 438.241 18.6518 443.962 18.6518Z" fill="#53389E"/>
<path d="M577.863 90.8571V169.212L512.223 96.6485C504.942 101.437 496.331 104.317 487.344 104.969V206.575H510.993V128.22L581.865 206.575H601.579V90.8571H577.863Z" fill="#53389E"/>
<path d="M43.037 243V219.2H53.339C55.4697 219.2 57.3057 219.551 58.847 220.254C60.3883 220.934 61.5783 221.92 62.417 223.212C63.2557 224.504 63.675 226.045 63.675 227.836C63.675 229.604 63.2557 231.134 62.417 232.426C61.5783 233.718 60.3883 234.715 58.847 235.418C57.3057 236.098 55.4697 236.438 53.339 236.438H46.097L48.545 233.956V243H43.037ZM48.545 234.568L46.097 231.95H53.033C54.733 231.95 56.0023 231.587 56.841 230.862C57.6797 230.137 58.099 229.128 58.099 227.836C58.099 226.521 57.6797 225.501 56.841 224.776C56.0023 224.051 54.733 223.688 53.033 223.688H46.097L48.545 221.07V234.568ZM67.1913 243V217.772H72.4953V243H67.1913ZM88.2639 243V239.43L87.9239 238.648V232.256C87.9239 231.123 87.5726 230.239 86.8699 229.604C86.1899 228.969 85.1359 228.652 83.7079 228.652C82.7332 228.652 81.7699 228.811 80.8179 229.128C79.8886 229.423 79.0952 229.831 78.4379 230.352L76.5339 226.646C77.5312 225.943 78.7326 225.399 80.1379 225.014C81.5432 224.629 82.9712 224.436 84.4219 224.436C87.2099 224.436 89.3746 225.093 90.9159 226.408C92.4572 227.723 93.2279 229.774 93.2279 232.562V243H88.2639ZM82.6879 243.272C81.2599 243.272 80.0359 243.034 79.0159 242.558C77.9959 242.059 77.2139 241.391 76.6699 240.552C76.1259 239.713 75.8539 238.773 75.8539 237.73C75.8539 236.642 76.1146 235.69 76.6359 234.874C77.1799 234.058 78.0299 233.423 79.1859 232.97C80.3419 232.494 81.8492 232.256 83.7079 232.256H88.5699V235.35H84.2859C83.0392 235.35 82.1779 235.554 81.7019 235.962C81.2486 236.37 81.0219 236.88 81.0219 237.492C81.0219 238.172 81.2826 238.716 81.8039 239.124C82.3479 239.509 83.0846 239.702 84.0139 239.702C84.8979 239.702 85.6912 239.498 86.3939 239.09C87.0966 238.659 87.6066 238.036 87.9239 237.22L88.7399 239.668C88.3546 240.847 87.6519 241.742 86.6319 242.354C85.6119 242.966 84.2972 243.272 82.6879 243.272ZM105.134 243.272C102.981 243.272 101.304 242.728 100.102 241.64C98.9009 240.529 98.3003 238.886 98.3003 236.71V220.662H103.604V236.642C103.604 237.413 103.808 238.013 104.216 238.444C104.624 238.852 105.18 239.056 105.882 239.056C106.721 239.056 107.435 238.829 108.024 238.376L109.452 242.116C108.908 242.501 108.251 242.796 107.48 243C106.732 243.181 105.95 243.272 105.134 243.272ZM95.4783 229.196V225.116H108.16V229.196H95.4783ZM112.702 243V224.3C112.702 222.237 113.314 220.594 114.538 219.37C115.762 218.123 117.507 217.5 119.774 217.5C120.544 217.5 121.281 217.579 121.984 217.738C122.709 217.897 123.321 218.146 123.82 218.486L122.426 222.328C122.131 222.124 121.802 221.965 121.44 221.852C121.077 221.739 120.692 221.682 120.284 221.682C119.513 221.682 118.912 221.909 118.482 222.362C118.074 222.793 117.87 223.45 117.87 224.334V226.034L118.006 228.312V243H112.702ZM109.88 229.196V225.116H122.562V229.196H109.88ZM133.302 243.272C131.352 243.272 129.618 242.864 128.1 242.048C126.604 241.232 125.414 240.121 124.53 238.716C123.668 237.288 123.238 235.667 123.238 233.854C123.238 232.018 123.668 230.397 124.53 228.992C125.414 227.564 126.604 226.453 128.1 225.66C129.618 224.844 131.352 224.436 133.302 224.436C135.228 224.436 136.951 224.844 138.47 225.66C139.988 226.453 141.178 227.553 142.04 228.958C142.901 230.363 143.332 231.995 143.332 233.854C143.332 235.667 142.901 237.288 142.04 238.716C141.178 240.121 139.988 241.232 138.47 242.048C136.951 242.864 135.228 243.272 133.302 243.272ZM133.302 238.92C134.186 238.92 134.979 238.716 135.682 238.308C136.384 237.9 136.94 237.322 137.348 236.574C137.756 235.803 137.96 234.897 137.96 233.854C137.96 232.789 137.756 231.882 137.348 231.134C136.94 230.386 136.384 229.808 135.682 229.4C134.979 228.992 134.186 228.788 133.302 228.788C132.418 228.788 131.624 228.992 130.922 229.4C130.219 229.808 129.652 230.386 129.222 231.134C128.814 231.882 128.61 232.789 128.61 233.854C128.61 234.897 128.814 235.803 129.222 236.574C129.652 237.322 130.219 237.9 130.922 238.308C131.624 238.716 132.418 238.92 133.302 238.92ZM146.503 243V224.708H151.569V229.876L150.855 228.38C151.399 227.088 152.272 226.113 153.473 225.456C154.674 224.776 156.136 224.436 157.859 224.436V229.332C157.632 229.309 157.428 229.298 157.247 229.298C157.066 229.275 156.873 229.264 156.669 229.264C155.218 229.264 154.04 229.683 153.133 230.522C152.249 231.338 151.807 232.619 151.807 234.364V243H146.503ZM184.098 224.436C185.549 224.436 186.829 224.731 187.94 225.32C189.073 225.887 189.957 226.771 190.592 227.972C191.249 229.151 191.578 230.669 191.578 232.528V243H186.274V233.344C186.274 231.871 185.968 230.783 185.356 230.08C184.744 229.377 183.883 229.026 182.772 229.026C182.001 229.026 181.31 229.207 180.698 229.57C180.086 229.91 179.61 230.431 179.27 231.134C178.93 231.837 178.76 232.732 178.76 233.82V243H173.456V233.344C173.456 231.871 173.15 230.783 172.538 230.08C171.949 229.377 171.099 229.026 169.988 229.026C169.217 229.026 168.526 229.207 167.914 229.57C167.302 229.91 166.826 230.431 166.486 231.134C166.146 231.837 165.976 232.732 165.976 233.82V243H160.672V224.708H165.738V229.706L164.786 228.244C165.421 226.997 166.316 226.057 167.472 225.422C168.651 224.765 169.988 224.436 171.484 224.436C173.161 224.436 174.623 224.867 175.87 225.728C177.139 226.567 177.978 227.859 178.386 229.604L176.516 229.094C177.128 227.666 178.103 226.533 179.44 225.694C180.8 224.855 182.353 224.436 184.098 224.436ZM205.859 243V224.3C205.859 222.237 206.471 220.594 207.695 219.37C208.919 218.123 210.664 217.5 212.931 217.5C213.702 217.5 214.438 217.579 215.141 217.738C215.866 217.897 216.478 218.146 216.977 218.486L215.583 222.328C215.288 222.124 214.96 221.965 214.597 221.852C214.234 221.739 213.849 221.682 213.441 221.682C212.67 221.682 212.07 221.909 211.639 222.362C211.231 222.793 211.027 223.45 211.027 224.334V226.034L211.163 228.312V243H205.859ZM203.037 229.196V225.116H215.719V229.196H203.037ZM226.459 243.272C224.51 243.272 222.776 242.864 221.257 242.048C219.761 241.232 218.571 240.121 217.687 238.716C216.826 237.288 216.395 235.667 216.395 233.854C216.395 232.018 216.826 230.397 217.687 228.992C218.571 227.564 219.761 226.453 221.257 225.66C222.776 224.844 224.51 224.436 226.459 224.436C228.386 224.436 230.108 224.844 231.627 225.66C233.146 226.453 234.336 227.553 235.197 228.958C236.058 230.363 236.489 231.995 236.489 233.854C236.489 235.667 236.058 237.288 235.197 238.716C234.336 240.121 233.146 241.232 231.627 242.048C230.108 242.864 228.386 243.272 226.459 243.272ZM226.459 238.92C227.343 238.92 228.136 238.716 228.839 238.308C229.542 237.9 230.097 237.322 230.505 236.574C230.913 235.803 231.117 234.897 231.117 233.854C231.117 232.789 230.913 231.882 230.505 231.134C230.097 230.386 229.542 229.808 228.839 229.4C228.136 228.992 227.343 228.788 226.459 228.788C225.575 228.788 224.782 228.992 224.079 229.4C223.376 229.808 222.81 230.386 222.379 231.134C221.971 231.882 221.767 232.789 221.767 233.854C221.767 234.897 221.971 235.803 222.379 236.574C222.81 237.322 223.376 237.9 224.079 238.308C224.782 238.716 225.575 238.92 226.459 238.92ZM239.66 243V224.708H244.726V229.876L244.012 228.38C244.556 227.088 245.429 226.113 246.63 225.456C247.832 224.776 249.294 224.436 251.016 224.436V229.332C250.79 229.309 250.586 229.298 250.404 229.298C250.223 229.275 250.03 229.264 249.826 229.264C248.376 229.264 247.197 229.683 246.29 230.522C245.406 231.338 244.964 232.619 244.964 234.364V243H239.66ZM263.558 243V219.2H269.066V243H263.558ZM282.67 243.272C280.721 243.272 278.987 242.864 277.468 242.048C275.972 241.232 274.782 240.121 273.898 238.716C273.037 237.288 272.606 235.667 272.606 233.854C272.606 232.018 273.037 230.397 273.898 228.992C274.782 227.564 275.972 226.453 277.468 225.66C278.987 224.844 280.721 224.436 282.67 224.436C284.597 224.436 286.319 224.844 287.838 225.66C289.357 226.453 290.547 227.553 291.408 228.958C292.269 230.363 292.7 231.995 292.7 233.854C292.7 235.667 292.269 237.288 291.408 238.716C290.547 240.121 289.357 241.232 287.838 242.048C286.319 242.864 284.597 243.272 282.67 243.272ZM282.67 238.92C283.554 238.92 284.347 238.716 285.05 238.308C285.753 237.9 286.308 237.322 286.716 236.574C287.124 235.803 287.328 234.897 287.328 233.854C287.328 232.789 287.124 231.882 286.716 231.134C286.308 230.386 285.753 229.808 285.05 229.4C284.347 228.992 283.554 228.788 282.67 228.788C281.786 228.788 280.993 228.992 280.29 229.4C279.587 229.808 279.021 230.386 278.59 231.134C278.182 231.882 277.978 232.789 277.978 233.854C277.978 234.897 278.182 235.803 278.59 236.574C279.021 237.322 279.587 237.9 280.29 238.308C280.993 238.716 281.786 238.92 282.67 238.92ZM298.951 243V223.688H291.335V219.2H312.075V223.688H304.459V243H298.951ZM335.479 243.408C333.598 243.408 331.853 243.102 330.243 242.49C328.657 241.878 327.274 241.017 326.095 239.906C324.939 238.795 324.033 237.492 323.375 235.996C322.741 234.5 322.423 232.868 322.423 231.1C322.423 229.332 322.741 227.7 323.375 226.204C324.033 224.708 324.951 223.405 326.129 222.294C327.308 221.183 328.691 220.322 330.277 219.71C331.864 219.098 333.587 218.792 335.445 218.792C337.327 218.792 339.049 219.098 340.613 219.71C342.2 220.322 343.571 221.183 344.727 222.294C345.906 223.405 346.824 224.708 347.481 226.204C348.139 227.677 348.467 229.309 348.467 231.1C348.467 232.868 348.139 234.511 347.481 236.03C346.824 237.526 345.906 238.829 344.727 239.94C343.571 241.028 342.2 241.878 340.613 242.49C339.049 243.102 337.338 243.408 335.479 243.408ZM335.445 238.716C336.511 238.716 337.485 238.535 338.369 238.172C339.276 237.809 340.069 237.288 340.749 236.608C341.429 235.928 341.951 235.123 342.313 234.194C342.699 233.265 342.891 232.233 342.891 231.1C342.891 229.967 342.699 228.935 342.313 228.006C341.951 227.077 341.429 226.272 340.749 225.592C340.092 224.912 339.31 224.391 338.403 224.028C337.497 223.665 336.511 223.484 335.445 223.484C334.38 223.484 333.394 223.665 332.487 224.028C331.603 224.391 330.821 224.912 330.141 225.592C329.461 226.272 328.929 227.077 328.543 228.006C328.181 228.935 327.999 229.967 327.999 231.1C327.999 232.211 328.181 233.242 328.543 234.194C328.929 235.123 329.45 235.928 330.107 236.608C330.787 237.288 331.581 237.809 332.487 238.172C333.394 238.535 334.38 238.716 335.445 238.716ZM362.671 243.272C361.129 243.272 359.781 242.932 358.625 242.252C357.469 241.572 356.562 240.541 355.905 239.158C355.27 237.753 354.953 235.985 354.953 233.854C354.953 231.701 355.259 229.933 355.871 228.55C356.483 227.167 357.367 226.136 358.523 225.456C359.679 224.776 361.061 224.436 362.671 224.436C364.393 224.436 365.935 224.833 367.295 225.626C368.677 226.397 369.765 227.485 370.559 228.89C371.375 230.295 371.783 231.95 371.783 233.854C371.783 235.781 371.375 237.447 370.559 238.852C369.765 240.257 368.677 241.345 367.295 242.116C365.935 242.887 364.393 243.272 362.671 243.272ZM351.859 249.596V224.708H356.925V228.448L356.823 233.888L357.163 239.294V249.596H351.859ZM361.753 238.92C362.637 238.92 363.419 238.716 364.099 238.308C364.801 237.9 365.357 237.322 365.765 236.574C366.195 235.803 366.411 234.897 366.411 233.854C366.411 232.789 366.195 231.882 365.765 231.134C365.357 230.386 364.801 229.808 364.099 229.4C363.419 228.992 362.637 228.788 361.753 228.788C360.869 228.788 360.075 228.992 359.373 229.4C358.67 229.808 358.115 230.386 357.707 231.134C357.299 231.882 357.095 232.789 357.095 233.854C357.095 234.897 357.299 235.803 357.707 236.574C358.115 237.322 358.67 237.9 359.373 238.308C360.075 238.716 360.869 238.92 361.753 238.92ZM384.037 243.272C381.952 243.272 380.116 242.864 378.529 242.048C376.965 241.232 375.753 240.121 374.891 238.716C374.03 237.288 373.599 235.667 373.599 233.854C373.599 232.018 374.019 230.397 374.857 228.992C375.719 227.564 376.886 226.453 378.359 225.66C379.833 224.844 381.499 224.436 383.357 224.436C385.148 224.436 386.757 224.821 388.185 225.592C389.636 226.34 390.781 227.428 391.619 228.856C392.458 230.261 392.877 231.95 392.877 233.922C392.877 234.126 392.866 234.364 392.843 234.636C392.821 234.885 392.798 235.123 392.775 235.35H377.917V232.256H389.987L387.947 233.174C387.947 232.222 387.755 231.395 387.369 230.692C386.984 229.989 386.451 229.445 385.771 229.06C385.091 228.652 384.298 228.448 383.391 228.448C382.485 228.448 381.68 228.652 380.977 229.06C380.297 229.445 379.765 230.001 379.379 230.726C378.994 231.429 378.801 232.267 378.801 233.242V234.058C378.801 235.055 379.017 235.939 379.447 236.71C379.901 237.458 380.524 238.036 381.317 238.444C382.133 238.829 383.085 239.022 384.173 239.022C385.148 239.022 385.998 238.875 386.723 238.58C387.471 238.285 388.151 237.843 388.763 237.254L391.585 240.314C390.747 241.266 389.693 242.003 388.423 242.524C387.154 243.023 385.692 243.272 384.037 243.272ZM407.153 224.436C408.603 224.436 409.895 224.731 411.029 225.32C412.185 225.887 413.091 226.771 413.749 227.972C414.406 229.151 414.735 230.669 414.735 232.528V243H409.431V233.344C409.431 231.871 409.102 230.783 408.445 230.08C407.81 229.377 406.903 229.026 405.725 229.026C404.886 229.026 404.127 229.207 403.447 229.57C402.789 229.91 402.268 230.443 401.883 231.168C401.52 231.893 401.339 232.823 401.339 233.956V243H396.035V224.708H401.101V229.774L400.149 228.244C400.806 227.02 401.747 226.079 402.971 225.422C404.195 224.765 405.589 224.436 407.153 224.436ZM428.797 243V219.2H433.353L447.395 236.336H445.185V219.2H450.625V243H446.103L432.027 225.864H434.237V243H428.797ZM464.586 243.272C462.501 243.272 460.665 242.864 459.078 242.048C457.514 241.232 456.302 240.121 455.44 238.716C454.579 237.288 454.148 235.667 454.148 233.854C454.148 232.018 454.568 230.397 455.406 228.992C456.268 227.564 457.435 226.453 458.908 225.66C460.382 224.844 462.048 224.436 463.906 224.436C465.697 224.436 467.306 224.821 468.734 225.592C470.185 226.34 471.33 227.428 472.168 228.856C473.007 230.261 473.426 231.95 473.426 233.922C473.426 234.126 473.415 234.364 473.392 234.636C473.37 234.885 473.347 235.123 473.324 235.35H458.466V232.256H470.536L468.496 233.174C468.496 232.222 468.304 231.395 467.918 230.692C467.533 229.989 467 229.445 466.32 229.06C465.64 228.652 464.847 228.448 463.94 228.448C463.034 228.448 462.229 228.652 461.526 229.06C460.846 229.445 460.314 230.001 459.928 230.726C459.543 231.429 459.35 232.267 459.35 233.242V234.058C459.35 235.055 459.566 235.939 459.996 236.71C460.45 237.458 461.073 238.036 461.866 238.444C462.682 238.829 463.634 239.022 464.722 239.022C465.697 239.022 466.547 238.875 467.272 238.58C468.02 238.285 468.7 237.843 469.312 237.254L472.134 240.314C471.296 241.266 470.242 242.003 468.972 242.524C467.703 243.023 466.241 243.272 464.586 243.272ZM484.063 243.272C481.91 243.272 480.233 242.728 479.031 241.64C477.83 240.529 477.229 238.886 477.229 236.71V220.662H482.533V236.642C482.533 237.413 482.737 238.013 483.145 238.444C483.553 238.852 484.109 239.056 484.811 239.056C485.65 239.056 486.364 238.829 486.953 238.376L488.381 242.116C487.837 242.501 487.18 242.796 486.409 243C485.661 243.181 484.879 243.272 484.063 243.272ZM474.407 229.196V225.116H487.089V229.196H474.407ZM494.835 243L488.239 224.708H493.237L498.711 240.45H496.331L502.043 224.708H506.531L512.073 240.45H509.693L515.337 224.708H520.029L513.399 243H508.265L503.403 229.502H504.967L499.935 243H494.835ZM530.327 243.272C528.377 243.272 526.643 242.864 525.125 242.048C523.629 241.232 522.439 240.121 521.555 238.716C520.693 237.288 520.263 235.667 520.263 233.854C520.263 232.018 520.693 230.397 521.555 228.992C522.439 227.564 523.629 226.453 525.125 225.66C526.643 224.844 528.377 224.436 530.327 224.436C532.253 224.436 533.976 224.844 535.495 225.66C537.013 226.453 538.203 227.553 539.065 228.958C539.926 230.363 540.357 231.995 540.357 233.854C540.357 235.667 539.926 237.288 539.065 238.716C538.203 240.121 537.013 241.232 535.495 242.048C533.976 242.864 532.253 243.272 530.327 243.272ZM530.327 238.92C531.211 238.92 532.004 238.716 532.707 238.308C533.409 237.9 533.965 237.322 534.373 236.574C534.781 235.803 534.985 234.897 534.985 233.854C534.985 232.789 534.781 231.882 534.373 231.134C533.965 230.386 533.409 229.808 532.707 229.4C532.004 228.992 531.211 228.788 530.327 228.788C529.443 228.788 528.649 228.992 527.947 229.4C527.244 229.808 526.677 230.386 526.247 231.134C525.839 231.882 525.635 232.789 525.635 233.854C525.635 234.897 525.839 235.803 526.247 236.574C526.677 237.322 527.244 237.9 527.947 238.308C528.649 238.716 529.443 238.92 530.327 238.92ZM543.528 243V224.708H548.594V229.876L547.88 228.38C548.424 227.088 549.297 226.113 550.498 225.456C551.699 224.776 553.161 224.436 554.884 224.436V229.332C554.657 229.309 554.453 229.298 554.272 229.298C554.091 229.275 553.898 229.264 553.694 229.264C552.243 229.264 551.065 229.683 550.158 230.522C549.274 231.338 548.832 232.619 548.832 234.364V243H543.528ZM562.083 239.26L562.219 232.8L570.753 224.708H577.077L568.883 233.038L566.129 235.282L562.083 239.26ZM557.697 243V217.772H563.001V243H557.697ZM571.331 243L565.143 235.316L568.475 231.202L577.757 243H571.331ZM585.325 243.272C583.761 243.272 582.253 243.091 580.803 242.728C579.375 242.343 578.241 241.867 577.403 241.3L579.171 237.492C580.009 238.013 580.995 238.444 582.129 238.784C583.285 239.101 584.418 239.26 585.529 239.26C586.753 239.26 587.614 239.113 588.113 238.818C588.634 238.523 588.895 238.115 588.895 237.594C588.895 237.163 588.691 236.846 588.283 236.642C587.897 236.415 587.376 236.245 586.719 236.132C586.061 236.019 585.336 235.905 584.543 235.792C583.772 235.679 582.99 235.531 582.197 235.35C581.403 235.146 580.678 234.851 580.021 234.466C579.363 234.081 578.831 233.559 578.423 232.902C578.037 232.245 577.845 231.395 577.845 230.352C577.845 229.196 578.173 228.176 578.831 227.292C579.511 226.408 580.485 225.717 581.755 225.218C583.024 224.697 584.543 224.436 586.311 224.436C587.557 224.436 588.827 224.572 590.119 224.844C591.411 225.116 592.487 225.513 593.349 226.034L591.581 229.808C590.697 229.287 589.801 228.935 588.895 228.754C588.011 228.55 587.149 228.448 586.311 228.448C585.132 228.448 584.271 228.607 583.727 228.924C583.183 229.241 582.911 229.649 582.911 230.148C582.911 230.601 583.103 230.941 583.489 231.168C583.897 231.395 584.429 231.576 585.087 231.712C585.744 231.848 586.458 231.973 587.229 232.086C588.022 232.177 588.815 232.324 589.609 232.528C590.402 232.732 591.116 233.027 591.751 233.412C592.408 233.775 592.941 234.285 593.349 234.942C593.757 235.577 593.961 236.415 593.961 237.458C593.961 238.591 593.621 239.6 592.941 240.484C592.261 241.345 591.275 242.025 589.983 242.524C588.713 243.023 587.161 243.272 585.325 243.272Z" fill="#53389E"/>
</svg>
