<svg width="209" height="246" viewBox="0 0 209 246" fill="none" xmlns="http://www.w3.org/2000/svg">
<path fill-rule="evenodd" clip-rule="evenodd" d="M136.33 11.47C136.33 17.5175 131.428 22.42 125.38 22.42C119.332 22.42 114.43 17.5175 114.43 11.47C114.43 5.42249 119.332 0.519989 125.38 0.519989C131.428 0.519989 136.33 5.42249 136.33 11.47ZM208.923 73.3504C208.798 78.8348 207.594 84.2409 205.38 89.26C201.146 98.8795 193.442 106.549 183.804 110.74C174.166 114.931 163.302 115.334 153.38 111.87L131 138C139.938 152.498 143.312 169.747 140.494 186.544C137.676 203.341 128.859 218.545 115.679 229.333C102.499 240.12 85.8526 245.759 68.83 245.201C51.8073 244.643 35.5654 237.927 23.12 226.3C36.91 213.95 50.21 201.14 63.39 188.3C64.4055 188.897 65.3351 189.499 66.2189 190.071L66.2193 190.072C67.9988 191.223 69.593 192.255 71.33 192.89C83.5 197.33 97.83 186.7 98.06 173.2C98.06 171.477 98.0678 169.754 98.0756 168.03V168.029V168.025C98.0911 164.576 98.1066 161.126 98.06 157.68C98.0962 156.491 97.7453 155.322 97.06 154.35C94.8889 151.946 92.6123 149.638 90.1537 147.145C89.2264 146.204 88.2732 145.238 87.29 144.23L14.14 216.13C3.94947 201.921 -0.582696 184.425 1.42759 167.056C3.4379 149.686 11.8464 133.689 25.0131 122.183C38.1798 110.677 55.1603 104.489 72.6426 104.825C90.1249 105.161 106.855 111.997 119.57 124L138.08 102.41C133.655 98.1106 130.235 92.8858 128.065 87.1099C125.895 81.3339 125.03 75.1497 125.53 69L103.6 61.24C99.3589 69.3074 92.2618 75.5034 83.6959 78.6169C75.1299 81.7304 65.7107 81.5377 57.2792 78.0764C48.8478 74.6152 42.01 68.1342 38.1025 59.9001C34.1949 51.6659 33.4983 42.2706 36.1488 33.5502C38.7994 24.8299 44.6066 17.4113 52.4355 12.7445C60.2643 8.07773 69.5521 6.49809 78.4836 8.31433C87.415 10.1306 95.3482 15.2121 100.733 22.5659C106.117 29.9196 108.566 39.017 107.6 48.08L128.94 55.62V55.54C131.154 50.5209 134.335 45.987 138.301 42.1972C142.268 38.4075 146.942 35.436 152.056 33.4525C157.171 31.4691 162.626 30.5125 168.11 30.6373C173.595 30.7621 179.001 31.9659 184.02 34.18C189.039 36.3941 193.573 39.5751 197.363 43.5414C201.153 47.5076 204.124 52.1815 206.107 57.2962C208.091 62.4109 209.048 67.8661 208.923 73.3504ZM85.8591 182.37C84.1027 184.023 81.7815 184.942 79.37 184.94C78.2729 184.952 77.1846 184.744 76.1697 184.327C75.1549 183.91 74.2342 183.293 73.4626 182.513C72.691 181.733 72.0842 180.806 71.6783 179.787C71.2724 178.767 71.0758 177.677 71.1 176.58C71.1899 171.71 75.88 167.29 80.82 167.4C81.9167 167.432 82.996 167.682 83.9947 168.136C84.9935 168.591 85.8917 169.239 86.6366 170.045C87.3816 170.85 87.9584 171.796 88.3333 172.827C88.7082 173.859 88.8737 174.954 88.82 176.05C88.6747 178.457 87.6156 180.718 85.8591 182.37ZM103.6 98.64C107.941 98.64 111.46 95.121 111.46 90.78C111.46 86.439 107.941 82.92 103.6 82.92C99.259 82.92 95.74 86.439 95.74 90.78C95.74 95.121 99.259 98.64 103.6 98.64Z" fill="white"/>
</svg>
